<mxfile host="app.diagrams.net" modified="2023-08-11T02:51:16.027Z" agent="Mozilla/5.0 (Macintosh; Intel Mac OS X 10_15_7) AppleWebKit/537.36 (KHTML, like Gecko) Chrome/115.0.0.0 Safari/537.36" etag="kazbHGQ5csRWF5YanukF" version="21.6.6" type="github">
  <diagram name="Page-1" id="HigoGXE5F1L-oP3TMgxl">
    <mxGraphModel dx="1038" dy="1383" grid="1" gridSize="10" guides="1" tooltips="1" connect="1" arrows="1" fold="1" page="1" pageScale="1" pageWidth="850" pageHeight="1100" math="0" shadow="0">
      <root>
        <mxCell id="0" />
        <mxCell id="1" parent="0" />
        <mxCell id="6AUmhATwHjRcd2S4S1oP-8" style="edgeStyle=orthogonalEdgeStyle;rounded=0;orthogonalLoop=1;jettySize=auto;html=1;exitX=0.5;exitY=1;exitDx=0;exitDy=0;entryX=0.25;entryY=0;entryDx=0;entryDy=0;" edge="1" parent="1" source="6AUmhATwHjRcd2S4S1oP-1" target="6AUmhATwHjRcd2S4S1oP-4">
          <mxGeometry relative="1" as="geometry" />
        </mxCell>
        <mxCell id="6AUmhATwHjRcd2S4S1oP-1" value="Tier1 APIs" style="rounded=0;whiteSpace=wrap;html=1;" vertex="1" parent="1">
          <mxGeometry x="190" y="290" width="120" height="60" as="geometry" />
        </mxCell>
        <mxCell id="6AUmhATwHjRcd2S4S1oP-9" style="edgeStyle=orthogonalEdgeStyle;rounded=0;orthogonalLoop=1;jettySize=auto;html=1;exitX=0.5;exitY=1;exitDx=0;exitDy=0;entryX=0.75;entryY=0;entryDx=0;entryDy=0;" edge="1" parent="1" source="6AUmhATwHjRcd2S4S1oP-2" target="6AUmhATwHjRcd2S4S1oP-4">
          <mxGeometry relative="1" as="geometry" />
        </mxCell>
        <mxCell id="6AUmhATwHjRcd2S4S1oP-2" value="Tier2 APIs" style="rounded=0;whiteSpace=wrap;html=1;" vertex="1" parent="1">
          <mxGeometry x="380" y="290" width="120" height="60" as="geometry" />
        </mxCell>
        <mxCell id="6AUmhATwHjRcd2S4S1oP-13" style="edgeStyle=orthogonalEdgeStyle;rounded=0;orthogonalLoop=1;jettySize=auto;html=1;" edge="1" parent="1" source="6AUmhATwHjRcd2S4S1oP-3" target="6AUmhATwHjRcd2S4S1oP-1">
          <mxGeometry relative="1" as="geometry" />
        </mxCell>
        <mxCell id="6AUmhATwHjRcd2S4S1oP-3" value="Actor" style="shape=umlActor;verticalLabelPosition=bottom;verticalAlign=top;html=1;outlineConnect=0;" vertex="1" parent="1">
          <mxGeometry x="235" y="50" width="30" height="60" as="geometry" />
        </mxCell>
        <mxCell id="6AUmhATwHjRcd2S4S1oP-4" value="Grpc Services" style="rounded=0;whiteSpace=wrap;html=1;" vertex="1" parent="1">
          <mxGeometry x="285" y="430" width="120" height="60" as="geometry" />
        </mxCell>
        <mxCell id="6AUmhATwHjRcd2S4S1oP-7" style="edgeStyle=orthogonalEdgeStyle;rounded=0;orthogonalLoop=1;jettySize=auto;html=1;" edge="1" parent="1" source="6AUmhATwHjRcd2S4S1oP-5" target="6AUmhATwHjRcd2S4S1oP-2">
          <mxGeometry relative="1" as="geometry" />
        </mxCell>
        <mxCell id="6AUmhATwHjRcd2S4S1oP-5" value="Actor" style="shape=umlActor;verticalLabelPosition=bottom;verticalAlign=top;html=1;outlineConnect=0;" vertex="1" parent="1">
          <mxGeometry x="425" y="50" width="30" height="60" as="geometry" />
        </mxCell>
        <mxCell id="6AUmhATwHjRcd2S4S1oP-10" value="Authorization&amp;amp;Authentication" style="rounded=0;whiteSpace=wrap;html=1;" vertex="1" parent="1">
          <mxGeometry x="190" y="160" width="310" height="70" as="geometry" />
        </mxCell>
        <mxCell id="6AUmhATwHjRcd2S4S1oP-14" style="edgeStyle=orthogonalEdgeStyle;rounded=0;orthogonalLoop=1;jettySize=auto;html=1;exitX=0.5;exitY=1;exitDx=0;exitDy=0;entryX=0.25;entryY=0;entryDx=0;entryDy=0;" edge="1" parent="1" source="6AUmhATwHjRcd2S4S1oP-15" target="6AUmhATwHjRcd2S4S1oP-20">
          <mxGeometry relative="1" as="geometry" />
        </mxCell>
        <mxCell id="6AUmhATwHjRcd2S4S1oP-15" value="Tier1 APIs" style="rounded=0;whiteSpace=wrap;html=1;" vertex="1" parent="1">
          <mxGeometry x="180" y="790" width="120" height="60" as="geometry" />
        </mxCell>
        <mxCell id="6AUmhATwHjRcd2S4S1oP-16" style="edgeStyle=orthogonalEdgeStyle;rounded=0;orthogonalLoop=1;jettySize=auto;html=1;exitX=0.5;exitY=1;exitDx=0;exitDy=0;entryX=0.75;entryY=0;entryDx=0;entryDy=0;" edge="1" parent="1" source="6AUmhATwHjRcd2S4S1oP-17" target="6AUmhATwHjRcd2S4S1oP-20">
          <mxGeometry relative="1" as="geometry" />
        </mxCell>
        <mxCell id="6AUmhATwHjRcd2S4S1oP-17" value="Tier2 APIs" style="rounded=0;whiteSpace=wrap;html=1;" vertex="1" parent="1">
          <mxGeometry x="370" y="790" width="120" height="60" as="geometry" />
        </mxCell>
        <mxCell id="6AUmhATwHjRcd2S4S1oP-18" style="edgeStyle=orthogonalEdgeStyle;rounded=0;orthogonalLoop=1;jettySize=auto;html=1;" edge="1" parent="1" source="6AUmhATwHjRcd2S4S1oP-19" target="6AUmhATwHjRcd2S4S1oP-15">
          <mxGeometry relative="1" as="geometry" />
        </mxCell>
        <mxCell id="6AUmhATwHjRcd2S4S1oP-19" value="Actor" style="shape=umlActor;verticalLabelPosition=bottom;verticalAlign=top;html=1;outlineConnect=0;" vertex="1" parent="1">
          <mxGeometry x="225" y="550" width="30" height="60" as="geometry" />
        </mxCell>
        <mxCell id="6AUmhATwHjRcd2S4S1oP-20" value="Grpc Services" style="rounded=0;whiteSpace=wrap;html=1;" vertex="1" parent="1">
          <mxGeometry x="275" y="930" width="120" height="60" as="geometry" />
        </mxCell>
        <mxCell id="6AUmhATwHjRcd2S4S1oP-21" style="edgeStyle=orthogonalEdgeStyle;rounded=0;orthogonalLoop=1;jettySize=auto;html=1;" edge="1" parent="1" source="6AUmhATwHjRcd2S4S1oP-22" target="6AUmhATwHjRcd2S4S1oP-17">
          <mxGeometry relative="1" as="geometry" />
        </mxCell>
        <mxCell id="6AUmhATwHjRcd2S4S1oP-22" value="Actor" style="shape=umlActor;verticalLabelPosition=bottom;verticalAlign=top;html=1;outlineConnect=0;" vertex="1" parent="1">
          <mxGeometry x="415" y="550" width="30" height="60" as="geometry" />
        </mxCell>
        <mxCell id="6AUmhATwHjRcd2S4S1oP-23" value="Authorization&amp;amp;Authentication" style="rounded=0;whiteSpace=wrap;html=1;" vertex="1" parent="1">
          <mxGeometry x="180" y="660" width="310" height="70" as="geometry" />
        </mxCell>
        <mxCell id="6AUmhATwHjRcd2S4S1oP-26" value="" style="group" vertex="1" connectable="0" parent="1">
          <mxGeometry x="300" y="670" width="70" height="50" as="geometry" />
        </mxCell>
        <mxCell id="6AUmhATwHjRcd2S4S1oP-24" value="" style="endArrow=none;html=1;rounded=0;strokeColor=#FF1900;" edge="1" parent="6AUmhATwHjRcd2S4S1oP-26">
          <mxGeometry width="50" height="50" relative="1" as="geometry">
            <mxPoint y="50" as="sourcePoint" />
            <mxPoint x="70" as="targetPoint" />
          </mxGeometry>
        </mxCell>
        <mxCell id="6AUmhATwHjRcd2S4S1oP-25" value="" style="endArrow=none;html=1;rounded=0;strokeColor=#FF1900;" edge="1" parent="6AUmhATwHjRcd2S4S1oP-26">
          <mxGeometry width="50" height="50" relative="1" as="geometry">
            <mxPoint as="sourcePoint" />
            <mxPoint x="70" y="50" as="targetPoint" />
          </mxGeometry>
        </mxCell>
        <mxCell id="6AUmhATwHjRcd2S4S1oP-27" value="" style="group" vertex="1" connectable="0" parent="1">
          <mxGeometry x="390" y="860" width="70" height="50" as="geometry" />
        </mxCell>
        <mxCell id="6AUmhATwHjRcd2S4S1oP-28" value="" style="endArrow=none;html=1;rounded=0;strokeColor=#FF1900;" edge="1" parent="6AUmhATwHjRcd2S4S1oP-27">
          <mxGeometry width="50" height="50" relative="1" as="geometry">
            <mxPoint y="50" as="sourcePoint" />
            <mxPoint x="70" as="targetPoint" />
          </mxGeometry>
        </mxCell>
        <mxCell id="6AUmhATwHjRcd2S4S1oP-29" value="" style="endArrow=none;html=1;rounded=0;strokeColor=#FF1900;" edge="1" parent="6AUmhATwHjRcd2S4S1oP-27">
          <mxGeometry width="50" height="50" relative="1" as="geometry">
            <mxPoint as="sourcePoint" />
            <mxPoint x="70" y="50" as="targetPoint" />
          </mxGeometry>
        </mxCell>
        <mxCell id="6AUmhATwHjRcd2S4S1oP-30" style="edgeStyle=orthogonalEdgeStyle;rounded=0;orthogonalLoop=1;jettySize=auto;html=1;exitX=0.5;exitY=1;exitDx=0;exitDy=0;entryX=0.25;entryY=0;entryDx=0;entryDy=0;" edge="1" parent="1" source="6AUmhATwHjRcd2S4S1oP-31" target="6AUmhATwHjRcd2S4S1oP-36">
          <mxGeometry relative="1" as="geometry" />
        </mxCell>
        <mxCell id="6AUmhATwHjRcd2S4S1oP-31" value="Tier1 APIs" style="rounded=0;whiteSpace=wrap;html=1;" vertex="1" parent="1">
          <mxGeometry x="590" y="810" width="120" height="60" as="geometry" />
        </mxCell>
        <mxCell id="6AUmhATwHjRcd2S4S1oP-33" value="Tier2 APIs" style="rounded=0;whiteSpace=wrap;html=1;" vertex="1" parent="1">
          <mxGeometry x="780" y="810" width="120" height="60" as="geometry" />
        </mxCell>
        <mxCell id="6AUmhATwHjRcd2S4S1oP-34" style="edgeStyle=orthogonalEdgeStyle;rounded=0;orthogonalLoop=1;jettySize=auto;html=1;" edge="1" parent="1" source="6AUmhATwHjRcd2S4S1oP-35" target="6AUmhATwHjRcd2S4S1oP-31">
          <mxGeometry relative="1" as="geometry" />
        </mxCell>
        <mxCell id="6AUmhATwHjRcd2S4S1oP-35" value="Actor" style="shape=umlActor;verticalLabelPosition=bottom;verticalAlign=top;html=1;outlineConnect=0;" vertex="1" parent="1">
          <mxGeometry x="635" y="570" width="30" height="60" as="geometry" />
        </mxCell>
        <mxCell id="6AUmhATwHjRcd2S4S1oP-36" value="Grpc Services" style="rounded=0;whiteSpace=wrap;html=1;" vertex="1" parent="1">
          <mxGeometry x="685" y="950" width="120" height="60" as="geometry" />
        </mxCell>
        <mxCell id="6AUmhATwHjRcd2S4S1oP-37" style="edgeStyle=orthogonalEdgeStyle;rounded=0;orthogonalLoop=1;jettySize=auto;html=1;" edge="1" parent="1" source="6AUmhATwHjRcd2S4S1oP-38" target="6AUmhATwHjRcd2S4S1oP-33">
          <mxGeometry relative="1" as="geometry" />
        </mxCell>
        <mxCell id="6AUmhATwHjRcd2S4S1oP-40" value="ratelimited" style="edgeLabel;html=1;align=center;verticalAlign=middle;resizable=0;points=[];" vertex="1" connectable="0" parent="6AUmhATwHjRcd2S4S1oP-37">
          <mxGeometry x="0.1833" relative="1" as="geometry">
            <mxPoint y="1" as="offset" />
          </mxGeometry>
        </mxCell>
        <mxCell id="6AUmhATwHjRcd2S4S1oP-38" value="Actor" style="shape=umlActor;verticalLabelPosition=bottom;verticalAlign=top;html=1;outlineConnect=0;" vertex="1" parent="1">
          <mxGeometry x="825" y="570" width="30" height="60" as="geometry" />
        </mxCell>
      </root>
    </mxGraphModel>
  </diagram>
</mxfile>
